<svg width="13" height="16" viewBox="0 0 13 16" fill="none" xmlns="http://www.w3.org/2000/svg">
<path d="M2.25071 12.9517L2.24983 12.9514C1.66552 12.7515 1.21372 12.3422 1.01519 11.8017C0.809975 11.2612 0.882628 10.6676 1.20348 10.1422C1.20349 10.1422 1.20351 10.1422 1.20353 10.1422L1.96999 8.88058C2.04336 8.7594 2.11707 8.5709 2.17252 8.37128C2.22796 8.17171 2.2622 7.97167 2.2622 7.82904V5.91967C2.2622 3.98854 3.48121 2.33361 5.19529 1.67016C5.53235 1.07988 6.16296 0.706152 6.86903 0.706152C7.57829 0.706152 8.21202 1.07819 8.54795 1.6775C10.2521 2.34575 11.4622 3.99562 11.4622 5.91967V7.82904C11.4622 7.96829 11.4964 8.16832 11.5519 8.36983C11.6074 8.57095 11.6811 8.76284 11.7547 8.88764C11.7548 8.8878 11.7549 8.88796 11.755 8.88813L12.5144 10.1425L12.5145 10.1427C12.817 10.6445 12.8732 11.2511 12.6693 11.8014C12.4652 12.3525 12.0218 12.7707 11.4669 12.9518M2.25071 12.9517L9.34723 13.3794C10.0562 13.2578 10.7552 13.0836 11.4355 12.8568L11.4665 12.9519C11.4666 12.9519 11.4668 12.9518 11.4669 12.9518M2.25071 12.9517C2.95713 13.1862 3.68173 13.3647 4.41584 13.4875M2.25071 12.9517L4.41584 13.4875M11.4669 12.9518C10.7648 13.1858 10.0431 13.3642 9.31109 13.4869C8.95136 14.4836 7.98988 15.1966 6.8623 15.1966C6.17591 15.1966 5.51062 14.9219 5.02525 14.4409C4.75221 14.1703 4.54494 13.8432 4.41584 13.4875M11.4669 12.9518L4.41584 13.4875M6.35047 2.58919C6.66947 2.54639 6.99938 2.54448 7.3374 2.5837C8.99108 2.81267 10.2622 4.21941 10.2622 5.91967V7.82243C10.2622 8.32288 10.4605 9.04732 10.7227 9.49191L10.7227 9.49192L10.7234 9.49302L11.4901 10.7549L11.4902 10.7552C11.6069 10.9459 11.625 11.1716 11.5482 11.3823C11.4722 11.5909 11.309 11.7472 11.0975 11.8171L11.0974 11.8171C8.33125 12.7353 5.40012 12.7353 2.63398 11.8172C2.38124 11.7316 2.2101 11.5778 2.14308 11.3896L2.14314 11.3896L2.1418 11.3862C2.06982 11.2051 2.09901 10.9806 2.23451 10.7546C2.23455 10.7546 2.23458 10.7545 2.23462 10.7545L3.00101 9.49303L3.00157 9.49208C3.25711 9.06087 3.4622 8.32979 3.4622 7.82904V5.91967C3.4622 4.23258 4.71927 2.83432 6.35047 2.58919ZM5.94091 13.6617C6.24761 13.6807 6.55491 13.6902 6.86221 13.6902C7.16964 13.6902 7.47709 13.6807 7.78389 13.6617C7.53752 13.8756 7.21499 14.0056 6.8623 14.0056C6.52624 14.0056 6.19494 13.8814 5.94091 13.6617Z" fill="#6A6A6B" stroke="#6A6A6B" stroke-width="0.2"/>
</svg>
