<svg width="78" height="74" viewBox="0 0 78 74" fill="none" xmlns="http://www.w3.org/2000/svg">
<g clip-path="url(#clip0_71_525)">
<path d="M55.9794 21.3976C57.7272 22.4822 59.9304 23.4647 61.57 24.6629C61.8945 24.9014 62.2531 25.0434 62.3898 25.4693L62.5435 39.4334L77.9545 47.4234L78.0057 65.3967L77.6755 65.8794L61.3935 73.983L60.5566 73.858L49.0339 68.1452L39.8682 73.7501L38.815 73.983L29.0572 68.1452L17.5345 73.858L16.8513 73.9943L0.256186 65.709L0 64.8288L0.0797022 47.537L0.705934 46.8612L15.5419 39.4334L15.6558 25.5942C15.7412 25.2194 15.9461 25.0774 16.2137 24.856C16.9937 24.2086 22.049 21.6475 22.1287 21.3181L22.1174 9.0122L22.5216 8.12064L38.963 0L39.5323 0.0851815L55.7062 8.28532L55.9623 9.16553L55.9794 21.3976ZM51.5616 8.93838L38.9858 2.80531C35.069 4.95188 30.6967 6.64984 26.8369 8.8532C26.6604 8.95541 26.4384 8.83616 26.5124 9.17121L39.0882 15.3838L51.3453 9.29614L51.5559 8.9327L51.5616 8.93838ZM37.739 31.6478V17.7745L24.7305 11.2042V25.0774L37.739 31.6478ZM40.3407 31.6478L53.3492 25.0774V11.2042L40.3407 17.7745V31.6478ZM22.1231 24.5096L18.212 26.7243L18.2461 39.3255L33.6514 47.3212C33.8222 47.5597 33.8165 47.8266 33.8393 48.1048C34.3118 53.4769 33.4635 59.5419 33.8393 64.9878C33.8165 65.9305 32.8829 66.2315 32.1485 66.5154L32.0517 66.8448L39.2078 70.9959L46.0337 66.7653C46.0963 66.4416 45.9597 66.5665 45.8288 66.487C45.0716 66.0441 44.3714 66.0781 44.2461 64.9821C44.6162 59.5362 43.7679 53.4713 44.2461 48.0991C44.2689 47.8209 44.2632 47.554 44.434 47.3155L59.8393 39.3198L59.8734 26.7186L55.9623 24.5039C55.894 25.3784 56.2698 26.5142 55.3703 27.0764L39.6575 34.9244L38.9744 35.0607L22.7322 27.0764C21.8327 26.5142 22.2085 25.3841 22.1401 24.5039L22.1231 24.5096ZM29.4443 47.872L16.8684 41.7389C12.9516 43.8855 8.57937 45.5835 4.71951 47.7868C4.54303 47.889 4.321 47.7698 4.39501 48.1048L16.9709 54.3174L29.2279 48.2298L29.4386 47.8663L29.4443 47.872ZM73.679 47.872L61.1031 41.7389C57.1863 43.8855 52.8141 45.5835 48.9542 47.7868C48.7778 47.889 48.5557 47.7698 48.6297 48.1048L61.2056 54.3174L73.4627 48.2298L73.6733 47.8663L73.679 47.872ZM15.6216 70.5814V56.7082L2.61309 50.1378V64.0111L15.6216 70.5814ZM18.2233 70.5814L31.2319 64.0111V50.1378L18.2233 56.7082V70.5814ZM59.8564 70.5814V56.7082L46.8478 50.1378V64.0111L59.8564 70.5814ZM62.4581 70.5814L75.4666 64.0111V50.1378L62.4581 56.7082V70.5814Z" fill="#61D1EC"/>
</g>
<defs>
<clipPath id="clip0_71_525">
<rect width="78" height="74" fill="white"/>
</clipPath>
</defs>
</svg>
