<svg width="67" height="72" viewBox="0 0 67 72" fill="none" xmlns="http://www.w3.org/2000/svg">
<g clip-path="url(#clip0_71_520)">
<path d="M23.2153 25.1034C24.4813 26.4801 22.3884 27.0251 21.6471 27.4439C19.4744 28.6887 19.5714 29.859 19.0068 31.9528C18.6703 33.192 17.0109 33.1002 16.8398 32.0045C16.5718 30.2892 17.661 28.0634 18.7844 26.8071C18.9954 26.5719 19.8109 25.9983 19.7652 25.8262C18.083 24.6674 16.5148 21.8622 16.8398 19.7913C17.0109 18.6956 18.6818 18.5694 19.0068 19.8429C19.56 22.0228 19.52 23.1644 21.7326 24.4092C22.1489 24.6444 22.9359 24.7878 23.2153 25.0919V25.1034Z" fill="#61D1EC"/>
<path d="M43.6991 26.7039C42.4331 25.3271 44.526 24.7821 45.2673 24.3633C47.44 23.1185 47.3431 21.9482 47.9076 19.8544C48.2441 18.6153 49.9036 18.7071 50.0746 19.8027C50.3427 21.518 49.2535 23.7438 48.13 25.0001C47.919 25.2353 47.1036 25.809 47.1492 25.9811C48.8315 27.1398 50.3997 29.945 50.0746 32.0159C49.9036 33.1116 48.2327 33.2378 47.9076 31.9643C47.3545 29.7844 47.3944 28.6428 45.1818 27.398C44.7655 27.1628 43.9785 27.0194 43.6991 26.7153V26.7039Z" fill="#61D1EC"/>
<path d="M32.4766 71.9999C26.4774 70.6288 26.2607 62.2534 32.3397 60.8995V49.3747C31.0338 50.6425 29.4713 51.3252 27.7149 51.7095L26.5915 56.8725L22.708 60.28C25.6563 65.6724 18.9899 71.3115 14.2453 67.3589C9.50076 63.4064 13.9032 55.5071 19.7598 57.7387C20.3243 57.9567 20.9972 58.6393 21.4877 58.3525L24.5785 55.6965L25.354 51.7669C23.0217 51.7267 20.9744 50.5393 19.3492 48.956L16.1842 52.7306L11.126 54.4573C11.5537 59.1614 6.63235 62.4542 2.53787 59.8956C-0.26211 58.1402 -0.820966 54.1877 1.25479 51.6292C3.70691 48.6003 8.40016 48.9904 10.3505 52.3405L15.0152 50.7171L18.0661 47.0285L17.4388 45.4337C11.4454 44.5961 6.98591 38.8653 8.46289 32.7501C4.41403 29.6236 4.41403 22.189 8.46289 19.0626C6.9631 12.8842 11.491 7.2337 17.5015 6.33879C19.1952 0.212108 26.5516 -1.77275 31.5642 1.73231L33.5202 3.83764C37.4208 -2.31199 47.5372 -0.780323 49.4076 6.33305C55.4182 7.22796 59.929 12.89 58.4463 19.0568C62.4894 22.189 62.5008 29.6179 58.4463 32.7443C59.9518 38.9112 55.4182 44.5732 49.4076 45.4681L48.8374 47.0227L51.9795 50.763L56.5587 52.3348C58.3151 49.2715 62.4324 48.5314 65.0955 50.9179C67.7587 53.3043 67.6104 57.3543 64.8731 59.5514C60.9155 62.7238 55.3156 59.3851 55.7832 54.4516L50.725 52.7249L47.56 48.9502C45.9291 50.5335 43.8932 51.7325 41.5552 51.7612L42.3307 55.6907C42.9238 56.0062 45.3873 58.5533 45.7922 58.4787C45.9633 58.45 46.7959 57.8706 47.1437 57.7387C53.0003 55.5129 57.5111 63.3204 52.6581 67.3589C47.8052 71.3975 41.2529 65.6724 44.1955 60.28L40.312 56.8725L39.1886 51.7038C37.4322 51.3481 35.8639 50.6138 34.5637 49.369V60.8938C40.6427 62.2362 40.4146 70.6403 34.4269 71.9941H32.4709L32.4766 71.9999ZM32.3397 19.5789V7.98519C32.3397 3.02878 26.5231 0.992284 22.6567 3.16645C19.2979 5.05379 18.4824 9.84385 19.8795 13.2112C20.3129 14.261 21.7956 15.5116 20.8204 16.4983C19.9365 17.3875 19.0755 16.3836 18.5907 15.6378C17.9349 14.6282 16.9712 12.259 16.9712 11.083V8.90305C12.7627 9.61439 9.93987 13.6644 10.5443 17.898C11.5081 17.5194 13.9089 16.722 14.1484 18.2881C14.3879 19.8542 12.5346 19.6305 11.5309 19.946C6.38143 21.5408 6.39284 30.3866 11.7419 31.947C12.6885 32.2223 14.3993 32.0559 14.1769 33.5589C13.9545 35.0619 11.4625 34.3162 10.55 33.9203V36.519C10.55 36.8116 11.1374 38.349 11.3142 38.7047C12.3578 40.8272 14.6388 42.5539 16.9769 42.9153V40.7354C16.9769 39.6914 17.7753 37.6663 18.2999 36.7255C18.7732 35.8765 19.6286 34.3506 20.7577 35.2398C21.8868 36.1289 20.2502 37.6606 19.8396 38.6989C18.4025 42.3245 19.486 47.4931 23.4037 49.0248C27.3214 50.5565 32.3454 48.4052 32.3454 43.684V32.228C30.9939 33.5647 29.5512 34.8669 27.732 35.5266C27.1047 35.7561 26.7797 35.8937 26.2607 35.3258C24.9548 33.8859 27.2473 33.3352 28.1084 32.8132C33.7768 29.3884 33.7768 22.4185 28.1084 18.9937C27.2587 18.4832 25.4453 18.1734 26.0269 16.8081C26.6656 15.2936 29.0379 16.8368 29.9332 17.4448C30.8285 18.0529 31.5186 18.8847 32.3454 19.5846L32.3397 19.5789ZM49.9437 8.89731V11.0772C49.9437 12.1213 49.1453 14.1463 48.6207 15.0871C48.1474 15.9361 47.292 17.462 46.1629 16.5729C45.0337 15.6837 46.6704 14.152 47.081 13.1137C48.518 9.49392 47.4288 4.31951 43.5168 2.78784C39.6049 1.25617 34.5752 3.41313 34.5752 8.12861V19.5846C35.402 18.8905 36.0806 18.0529 36.9874 17.4448C37.8941 16.8368 40.2493 15.2936 40.8936 16.8081C41.4753 18.1734 39.6562 18.4832 38.8122 18.9937C33.1381 22.4242 33.1381 29.3827 38.8122 32.8132C39.6676 33.3295 41.96 33.8859 40.6598 35.3258C40.1409 35.8937 39.8159 35.7561 39.1886 35.5266C37.3694 34.8669 35.9267 33.5647 34.5752 32.228V43.8217C34.5752 49.2715 41.5437 51.1187 45.2619 47.9635C47.7311 45.8639 48.2272 41.5959 47.081 38.6932C46.6704 37.6606 45.0223 36.1347 46.1629 35.234C47.3034 34.3334 48.1474 35.865 48.6207 36.7198C49.1453 37.6606 49.9437 39.6799 49.9437 40.7297V42.9096C54.1522 42.181 56.9636 38.1597 56.3705 33.9146C55.4524 34.3104 52.9604 35.0447 52.7437 33.5532C52.527 32.0617 54.386 32.1822 55.3897 31.8724C60.5392 30.2776 60.5277 21.4318 55.1787 19.8714C54.2264 19.5903 52.5384 19.7739 52.7722 18.2824C53.006 16.7909 55.4125 17.5137 56.3762 17.8923V15.2936C56.3762 15.001 55.7889 13.4636 55.6121 13.108C54.5571 10.9625 52.3103 9.27019 49.9494 8.89731H49.9437ZM5.06413 51.8013C0.878413 52.3635 1.5114 58.7541 5.71993 58.5131C10.1965 58.255 9.60911 51.1932 5.06413 51.8013ZM60.944 51.8013C56.7583 52.3635 57.3913 58.7541 61.5998 58.5131C66.0764 58.255 65.489 51.1932 60.944 51.8013ZM17.359 59.6719C13.1732 60.2341 13.8062 66.6247 18.0148 66.3837C22.4913 66.1256 21.9039 59.0638 17.359 59.6719ZM48.6492 59.6719C44.4635 60.2341 45.0965 66.6247 49.305 66.3837C53.7816 66.1256 53.1942 59.0638 48.6492 59.6719ZM33.0012 63.045C28.8155 63.6072 29.4485 69.9978 33.657 69.7568C38.1336 69.4987 37.5462 62.437 33.0012 63.045Z" fill="#61D1EC"/>
</g>
<defs>
<clipPath id="clip0_71_520">
<rect width="67" height="72" fill="white"/>
</clipPath>
</defs>
</svg>
