<?xml version="1.0" encoding="UTF-8"?>
<svg version="1.1" xmlns="http://www.w3.org/2000/svg" width="22" height="21">
<path d="M0 0 C2.93423195 1.79646854 4.47205355 2.9441071 6 6 C6.55512815 10.63213493 6.6364242 13.98172127 4.125 18 C0.40957094 21.49687441 -2.58097235 21.32862375 -7.515625 21.29296875 C-10.97198834 20.88537873 -12.68663869 19.53723498 -15 17 C-16.72869779 13.54260443 -16.48966895 9.78024432 -16 6 C-11.8902581 -0.57558704 -7.32074082 -0.86329491 0 0 Z M-4 10 C-4 13 -4 13 -4 13 Z M-7 13 C-6.67 13.66 -6.34 14.32 -6 15 C-5.67 14.34 -5.34 13.68 -5 13 C-5.66 13 -6.32 13 -7 13 Z " fill="#F37869" transform="translate(16,0)"/>
</svg>
