<svg width="26" height="27" viewBox="0 0 26 27" fill="none" stroke="white"
    xmlns="http://www.w3.org/2000/svg">
    <g id="Group 47583">
        <g id="Group 46615">
            <path id="Path 79887"
                d="M21.4713 4.02051L24.4243 6.5835C24.5971 6.73173 24.7362 6.91511 24.8325 7.12143C24.9287 7.32774 24.9798 7.55223 24.9824 7.77988C24.9849 8.00752 24.9389 8.23311 24.8473 8.44153C24.7557 8.64995 24.6207 8.83642 24.4513 8.98849L16.8053 15.7495C15.7567 16.729 14.3753 17.2739 12.9403 17.2739C11.5054 17.2739 10.1239 16.729 9.0753 15.7495L1.5283 9.0755C1.35249 8.91743 1.21389 8.72234 1.12248 8.5043C1.03107 8.28627 0.989113 8.0507 0.999631 7.81451C1.01015 7.57832 1.07288 7.34738 1.18332 7.13834C1.29375 6.92929 1.44914 6.74732 1.6383 6.6055L4.4803 4.02051"
                stroke-width="1.5" stroke-linecap="round" stroke-linejoin="round" />
            <path id="Path 79889"
                d="M1.01709 7.76807V19.3781C1.01709 22.6781 3.18009 25.3471 5.84909 25.3471H20.1651C22.8331 25.3471 24.9971 22.6751 24.9971 19.3781V7.76807"
                stroke-width="1.5" stroke-linejoin="round" />
            <path id="Line 370" d="M23.6161 23.4634L16.4751 16.6724" stroke-width="1.5"
                stroke-miterlimit="10" />
            <path id="Line 371" d="M9.47518 15.6724L2.43018 23.4634" stroke-width="1.5"
                stroke-miterlimit="10" />
            <path id="Path 79890"
                d="M4.65625 11.4433V4.24331C4.78725 2.29731 6.01625 0.857284 7.41525 1.01128H18.4542C19.8542 0.857284 21.0822 2.29731 21.2132 4.24331V11.4433"
                stroke-width="1.5" stroke-miterlimit="10" stroke-linecap="round" />
            <path id="Line 373" d="M8.3833 9.85449H13.3463" stroke-width="1.5"
                stroke-miterlimit="10" stroke-linecap="round" />
            <path id="Line 373_2" d="M8.32715 5.35352H16.5161" stroke-width="1.5"
                stroke-miterlimit="10" stroke-linecap="round" />
        </g>
    </g>
</svg>