<svg width="21" height="18" viewBox="0 0 21 18" fill="none" xmlns="http://www.w3.org/2000/svg">
<path d="M8.11056 10.8669C7.81623 10.5753 7.58286 10.228 7.42406 9.84535C7.26525 9.46267 7.18418 9.05222 7.18556 8.63789C7.18436 8.01244 7.36879 7.4007 7.71549 6.88013C8.0622 6.35957 8.55558 5.9536 9.13317 5.71363C9.71076 5.47367 10.3466 5.4105 10.9601 5.53213C11.5736 5.65376 12.1372 5.95472 12.5796 6.39689" stroke="#000" stroke-width="1.5" stroke-linecap="round" stroke-linejoin="round"/>
<path d="M13.455 9.19873C13.3404 9.82999 13.0362 10.4114 12.583 10.8655C12.1298 11.3196 11.549 11.6249 10.918 11.7407" stroke="#000" stroke-width="1.5" stroke-linecap="round" stroke-linejoin="round"/>
<path d="M4.99961 13.9727C3.27514 12.5461 1.93452 10.7112 1.09961 8.63472C1.94671 6.5492 3.2985 4.70672 5.03361 3.27272C6.53366 2.04098 8.40878 1.35739 10.3496 1.33472C12.2993 1.35981 14.182 2.05028 15.6856 3.29172" stroke="#000" stroke-width="1.5" stroke-linecap="round" stroke-linejoin="round"/>
<path d="M17.7984 5.49072C18.5204 6.46467 19.1246 7.52069 19.5984 8.63672C17.6314 13.1937 14.1554 15.9367 10.3484 15.9367C9.48839 15.9369 8.63404 15.7981 7.81836 15.5257" stroke="#000" stroke-width="1.5" stroke-linecap="round" stroke-linejoin="round"/>
<path d="M18.2369 0.749756L2.46289 16.5238" stroke="#000" stroke-width="1.5" stroke-linecap="round" stroke-linejoin="round"/>
</svg>
