<svg width="45" height="45" viewBox="0 0 45 45" fill="none" xmlns="http://www.w3.org/2000/svg">
<g clip-path="url(#clip0_71_528)">
<path d="M6.44317 36.5245H2.99385C1.84408 36.5245 0.200557 34.8846 0.0969741 33.7028C-0.0307785 23.4441 -0.0307785 13.1364 0.0969741 2.88112C0.424988 1.27972 1.76121 0.132867 3.35985 0H41.6407C43.2532 0.132867 44.5583 1.27622 44.9174 2.86713C45.021 13.1503 45.0417 23.4755 44.9071 33.7552C44.4893 35.4336 43.1841 36.472 41.4854 36.5804L16.0626 36.5874L7.94513 44.7867C7.57223 45.1084 6.99562 45.0524 6.68141 44.6818C6.62272 44.6119 6.44662 44.2902 6.44662 44.2273V36.5245H6.44317ZM8.28695 41.8042L15.2719 34.8287L15.5378 34.7273L41.589 34.7168C42.39 34.6364 43.0529 34.0175 43.1427 33.1993V3.43706C43.1047 2.62238 42.4383 1.93357 41.6407 1.86364H3.30805C2.5519 1.96853 1.92694 2.60839 1.86134 3.38462L1.86825 33.2937C2.03743 34.0944 2.65893 34.6434 3.46688 34.7133C4.71333 34.8217 6.26018 34.549 7.46519 34.7133C7.83119 34.7622 8.28695 35.1469 8.28695 35.535V41.8007V41.8042Z" fill="#fff"/>
<path d="M32.135 16.7972V31.0594C32.135 31.0804 31.9761 31.3636 31.9485 31.4021C31.7241 31.7063 31.4582 31.7273 31.1095 31.7762C29.3831 31.6923 27.5566 31.8916 25.844 31.7762C25.5091 31.7552 25.15 31.7063 24.9256 31.4266C24.8807 31.3706 24.7149 31.042 24.7149 31V24.9475H20.2919V31C20.2919 31.021 20.1538 31.3217 20.1262 31.3636C19.919 31.6783 19.5634 31.7482 19.2147 31.7727C17.4917 31.8951 15.6342 31.6783 13.894 31.7727C13.5452 31.7238 13.2794 31.6993 13.0549 31.3986C13.0273 31.3601 12.8685 31.0734 12.8685 31.0559V16.7937C12.3885 17.1084 11.6738 18.2168 11.1455 18.3287C10.234 18.521 9.66431 17.4615 10.2893 16.7692L21.7905 5.11888C22.2151 4.72727 22.6709 4.67832 23.137 5.03846L34.7176 16.7692C35.3771 17.5035 34.7522 18.5909 33.7819 18.3042C33.302 18.1643 32.6045 17.0874 32.1419 16.7937L32.135 16.7972ZM30.3464 29.9126V14.958L22.481 7.04545L14.6536 14.958V29.9126H18.4965V23.7552C18.4965 23.528 19.0973 23.042 19.3666 23.0874C21.3692 23.2063 23.5479 22.9301 25.5298 23.0874C25.8785 23.1154 26.134 23.1993 26.3447 23.4895C26.3723 23.528 26.5035 23.7413 26.5035 23.7552V29.9126H30.3464Z" fill="#fff"/>
</g>
<defs>
<clipPath id="clip0_71_528">
<rect width="45" height="45" fill="white"/>
</clipPath>
</defs>
</svg>
