<svg width="47" height="54" viewBox="0 0 47 54" fill="none" xmlns="http://www.w3.org/2000/svg">
<path d="M26.4504 46.0445C23.8579 44.3935 20.7299 43.747 18.2751 41.8076L0.970236 24.5289C-0.768737 22.7016 0.159069 19.5547 2.56606 18.9082C1.85563 17.9198 0.588511 17.1932 0.180276 15.991C-0.440029 14.1852 0.593812 12.1228 2.42292 11.6153C2.11011 10.9047 1.4739 10.5307 1.13989 9.77732C-0.455934 6.18694 4.29443 3.1629 6.90819 6.07474C7.58682 3.49415 11.0701 2.64464 12.7719 4.7604C16.3453 -1.50674 25.4802 -1.66702 28.937 4.80849C29.2975 5.48703 29.7534 7.21276 30.0026 7.52799C30.2094 7.78979 30.8986 8.09433 31.2114 8.35079C32.3672 9.28578 34.9704 11.5458 35.6914 12.7373C36.4124 13.9287 37.5099 17.3267 38.0295 18.8388C38.7452 20.9171 39.5246 22.739 39.4821 24.9723C39.445 26.8958 39.2277 28.8566 39.1852 30.8014C39.1799 31.0471 39.0315 31.3036 39.0315 31.5387C39.0421 31.9928 39.5246 32.4576 39.8374 32.7675C39.9752 32.7675 41.078 31.3784 41.359 31.2288C41.4703 31.17 41.5392 31.1326 41.6453 31.2288L46.9894 36.7586L45.9132 37.8699L41.571 33.4995C39.0951 35.9625 36.6616 38.4737 34.191 40.9421C32.3407 42.7907 29.1384 45.3499 27.6698 47.3535C27.1662 48.0373 26.9647 48.7159 27.4578 49.4746C27.919 50.1852 30.6547 52.3971 30.7714 52.8566C30.8562 53.1825 29.9443 54.2938 29.4035 53.9305C28.9476 53.6206 26.6042 51.2163 26.2225 50.7141C25.1568 49.3196 25.2098 47.5298 26.4398 46.2582V46.0498L26.4504 46.0445ZM24.1389 18.9082C23.8844 15.7186 26.7845 14.7301 27.8289 12.048C29.4459 7.90199 27.1238 2.99727 22.8081 1.93939C15.6826 0.197626 10.5823 8.28667 15.0994 14.0836C15.6296 14.7622 16.4725 15.3125 16.9232 16.0391C17.4534 16.8833 17.5859 17.9305 17.6177 18.9136H19.2083V15.7773L17.0345 11.3267H24.2714V13.0792H19.7861C19.871 13.4906 20.9419 15.1308 20.9419 15.3392V18.9136H24.1283L24.1389 18.9082ZM15.8841 27.3713V17.8183C15.8841 16.9581 13.7899 15.2324 13.2173 14.3775C11.6957 12.1015 11.298 9.07207 12.088 6.45942C11.1284 4.67492 8.39268 4.95809 8.48812 7.17536C8.53583 8.31873 10.0044 9.02398 10.6724 9.79869L9.44773 11.0382L5.16922 6.89219C3.56809 6.01597 1.92455 7.67225 2.79404 9.28578L13.5672 20.1584C13.2544 20.3722 12.6341 21.3766 12.2683 21.1896L4.09827 13.2181C2.688 12.6464 1.18231 14.2012 1.87684 15.601L14.1451 28.0338C13.8323 28.2475 13.212 29.2519 12.8462 29.0649L4.16719 20.5859C2.61908 20.1478 1.4739 21.3072 1.90865 22.8619L18.922 40.1406C19.9664 40.9741 21.1434 41.6527 22.3469 42.235C24.1813 43.1166 26.1323 43.4959 27.6804 44.8851L38.5861 34.0124L37.3031 32.2546C37.4145 30.0854 37.7008 27.8735 37.7485 25.7043C37.8227 22.4024 36.4548 19.2929 35.246 16.2528C34.912 15.414 34.472 13.9821 33.9789 13.2982C33.0776 12.0534 31.2591 10.723 30.0715 9.7239L29.2498 13.154C29.5573 13.6402 30.1245 13.9073 30.3684 14.4523C30.7183 15.2324 32.0014 19.5974 31.9537 20.292C31.89 21.2484 30.888 22.1673 29.9549 22.2368C28.3485 22.3543 27.0813 20.0249 25.8725 19.2021V27.3713L24.8758 27.3926L23.895 30.7105L17.7556 30.6625L16.8755 27.3926L15.8788 27.3713H15.8841ZM28.4068 14.682C28.0834 15.1415 26.2013 16.6001 26.3232 17.0596C26.3815 17.2787 29.149 20.0462 29.4883 20.3027C29.9072 20.6233 30.2253 20.6179 30.2253 20.0142C30.2253 19.528 29.043 15.7346 28.7779 15.1843C28.6772 14.9812 28.603 14.8156 28.4068 14.682ZM24.1389 20.6607H17.623V22.2635H24.1389V20.6607ZM24.1389 24.016H17.623V25.6188H24.1389V24.016ZM23.1209 27.3713H18.6357L19.1605 28.9581L22.7657 28.8352L23.1262 27.3713H23.1209Z" fill="#fff"/>
</svg>
