<svg width="10" height="10" viewBox="0 0 10 10" fill="none" xmlns="http://www.w3.org/2000/svg">
<path id="Path 78452" d="M3.82224 9.86602C3.77742 9.87236 3.73175 9.86819 3.68882 9.85384C3.6459 9.8395 3.60689 9.81537 3.57489 9.78337C3.54289 9.75137 3.51876 9.71236 3.50442 9.66944C3.49007 9.62651 3.4859 9.58084 3.49224 9.53602L3.52524 6.86402L1.21624 8.25002C1.17912 8.27826 1.13592 8.29746 1.09009 8.30608C1.04425 8.31471 0.997031 8.31253 0.952183 8.29972C0.907336 8.2869 0.866093 8.26381 0.831732 8.23227C0.797371 8.20073 0.770837 8.16161 0.754238 8.11802L0.0612387 6.86602C0.0329984 6.8289 0.0138026 6.7857 0.00517595 6.73987C-0.00345072 6.69403 -0.00127091 6.64681 0.0115427 6.60196C0.0243563 6.55712 0.0474507 6.51587 0.0789913 6.48151C0.110532 6.44715 0.14965 6.42062 0.193239 6.40402L2.50224 5.11702L0.193239 3.83002C0.14965 3.81342 0.110532 3.78689 0.0789913 3.75253C0.0474507 3.71817 0.0243563 3.67692 0.0115427 3.63208C-0.00127091 3.58723 -0.00345072 3.54001 0.00517595 3.49417C0.0138026 3.44834 0.0329984 3.40514 0.0612387 3.36802L0.754238 2.11402C0.770837 2.07043 0.797371 2.03131 0.831732 1.99977C0.866093 1.96823 0.907336 1.94514 0.952183 1.93232C0.997031 1.91951 1.04425 1.91733 1.09009 1.92596C1.13592 1.93458 1.17912 1.95378 1.21624 1.98202L3.52524 3.36602L3.49224 0.69402C3.4859 0.649206 3.49007 0.603534 3.50442 0.560607C3.51876 0.51768 3.54289 0.478673 3.57489 0.446669C3.60689 0.414666 3.6459 0.39054 3.68882 0.376197C3.73175 0.361853 3.77742 0.357685 3.82224 0.36402H5.24124C5.28605 0.357685 5.33173 0.361853 5.37465 0.376197C5.41758 0.39054 5.45659 0.414666 5.48859 0.446669C5.52059 0.478673 5.54472 0.51768 5.55906 0.560607C5.57341 0.603534 5.57757 0.649206 5.57124 0.69402L5.53824 3.36602L7.84624 1.98202C7.88336 1.95378 7.92655 1.93458 7.97239 1.92596C8.01823 1.91733 8.06545 1.91951 8.11029 1.93232C8.15514 1.94514 8.19638 1.96823 8.23075 1.99977C8.26511 2.03131 8.29164 2.07043 8.30824 2.11402L9.00124 3.36602C9.02948 3.40314 9.04867 3.44634 9.0573 3.49217C9.06593 3.53801 9.06375 3.58523 9.05093 3.63008C9.03812 3.67492 9.01503 3.71617 8.98349 3.75053C8.95195 3.78489 8.91283 3.81142 8.86924 3.82802L6.56024 5.11602L8.86924 6.40302C8.91283 6.41962 8.95195 6.44615 8.98349 6.48051C9.01503 6.51488 9.03812 6.55612 9.05093 6.60096C9.06375 6.64581 9.06593 6.69303 9.0573 6.73887C9.04867 6.78471 9.02948 6.8279 9.00124 6.86502L8.30824 8.11902C8.29164 8.16261 8.26511 8.20173 8.23075 8.23327C8.19638 8.26481 8.15514 8.2879 8.11029 8.30072C8.06545 8.31353 8.01823 8.31571 7.97239 8.30708C7.92655 8.29846 7.88336 8.27926 7.84624 8.25102L5.53824 6.86602L5.57124 9.53802C5.57757 9.58284 5.57341 9.62851 5.55906 9.67144C5.54472 9.71436 5.52059 9.75337 5.48859 9.78537C5.45659 9.81737 5.41758 9.8415 5.37465 9.85584C5.33173 9.87019 5.28605 9.87436 5.24124 9.86802L3.82224 9.86602Z" fill="#FF0000"/>
</svg>
