<svg width="52" height="52" viewBox="0 0 52 52" fill="none" xmlns="http://www.w3.org/2000/svg">
<g clip-path="url(#clip0_72_632)">
<path d="M30.4256 26.5595C31.8382 25.9138 33.1856 26.2539 34.3377 27.2053C35.7202 25.8546 37.6638 25.968 39.0914 27.2053C40.9799 25.3124 44.2859 26.3328 44.5864 29.0045C44.1957 33.3867 45.5031 38.8436 43.5295 42.8856C42.7581 44.463 41.2253 45.6067 41.045 47.4059C40.9598 48.2389 41.2303 51.167 40.9248 51.6402C40.5891 52.1578 39.6324 52.1134 39.437 51.4923C39.2767 50.9895 39.3268 47.8692 39.3869 47.189C39.6374 44.4433 42.2622 42.9152 42.7831 39.7555C43.3291 36.4183 42.7281 32.2776 42.8533 28.8665C42.4225 27.851 41.08 27.5257 40.2886 28.3736C39.7927 28.901 40.0281 30.4143 38.9111 30.2418C38.0695 30.1136 38.2949 29.0489 37.8942 28.5165C37.3232 27.7623 36.2412 27.6687 35.5499 28.3391C35.049 28.8271 35.1893 30.7939 33.922 30.1383C33.1656 29.7439 33.7416 28.5707 32.5244 28.0285C31.8432 27.7229 31.0417 27.9546 30.641 28.5707C30.2402 29.1869 30.6059 30.2319 29.4839 30.1531C28.9178 30.1136 28.8026 29.8327 28.7575 29.3348C28.3518 24.8737 29.0731 19.8112 28.7625 15.2861C28.5471 13.3981 26.2129 13.1467 25.6719 14.9657V35.2057C25.6468 35.812 25.0808 36.3049 24.4797 36.0486C24.3845 36.0092 24.0088 35.6789 24.0088 35.6395V30.4685C21.8749 32.9037 22.9519 36.4084 24.069 39.0654C24.8905 41.0223 26.1628 42.8018 26.9793 44.6898C27.906 46.8341 27.4852 49.2002 27.5002 51.4825C27.1546 52.1332 26.2529 52.1923 25.9374 51.4825C25.6969 49.422 26.273 47.2974 25.4314 45.3405C23.9588 41.9244 21.4993 39.0358 21.1486 35.0775C20.8481 31.6861 22.1955 29.8967 24.0038 27.2497C24.2743 23.2766 23.6632 18.8746 24.0038 14.9509C24.2293 12.4024 27.1796 11.2193 29.2083 12.777C29.6942 13.1467 30.4206 14.2509 30.4206 14.8473V26.5497L30.4256 26.5595Z" fill="#61D1EC"/>
<path d="M23.0922 21.5216C22.3959 22.2068 21.5143 21.2062 21.0735 20.6836C17.8075 16.7796 19.3704 10.6671 24.079 8.72497C31.2521 5.76242 38.0094 13.6839 33.7466 20.0872C33.3359 20.7034 32.4944 21.9899 31.6428 21.3885C30.6911 20.7132 31.778 19.9689 32.1287 19.4759C36.4616 13.3438 28.5171 6.6152 23.1222 11.2685C20.4924 13.536 20.4123 17.0803 22.461 19.7569C22.8367 20.2499 23.8435 20.7822 23.0922 21.5266V21.5216Z" fill="#61D1EC"/>
<path d="M7.73916 32.0114L7.7642 33.1846C8.09982 33.3127 9.52242 33.5937 9.61759 33.924L9.19682 35.1957C8.95137 35.5556 8.30519 35.0577 7.99462 34.9739C7.108 34.7274 5.61027 34.7817 6.00098 36.0633C6.25144 36.8865 9.30201 37.1281 9.79792 39.0702C10.2137 40.7019 9.24691 42.1314 7.64899 42.575L7.53378 44.039C6.10617 44.5616 5.81564 44.044 5.97093 42.6736C5.55016 42.6687 3.90215 42.2497 3.86207 41.8553C3.83202 41.5645 4.18767 40.4603 4.49824 40.4012C5.33977 40.8596 7.24826 41.5349 7.84435 40.4258C8.53561 39.1343 6.27148 38.6266 5.50007 38.1879C3.13575 36.8372 3.55151 34.0225 6.07111 33.2979L6.09615 32.0163C6.64716 31.8536 7.17813 31.8536 7.72914 32.0163L7.73916 32.0114Z" fill="#61D1EC"/>
<path d="M3.87699 0L3.92208 1.2077C4.02727 1.35065 5.55506 1.4936 5.74541 1.92739C5.81053 2.12456 5.40479 3.14494 5.24449 3.26325C4.89385 3.51465 4.49813 3.08579 4.11743 2.97734C3.24083 2.72595 1.74309 2.80482 2.12379 4.06674C2.26405 4.52517 4.12745 5.19063 4.63838 5.51104C6.97766 6.99479 6.2864 9.8834 3.77681 10.5735L3.63655 12.1805C2.10876 12.3481 1.99355 12.1411 2.09874 10.677C1.71805 10.677 0.17523 10.2531 0.0249558 9.99678C-0.125319 9.74045 0.320496 8.36515 0.701191 8.40459C0.951649 8.42924 1.68799 8.91231 2.20895 8.99118C2.86014 9.08977 3.62654 9.07991 3.97217 8.42924C4.65842 7.12295 2.42935 6.64973 1.62788 6.1913C0.155194 5.33852 -0.511023 3.61323 0.666127 2.22808C1.06686 1.75979 2.11878 1.38516 2.16887 1.31121C2.3492 1.04503 2.06869 0.221822 2.32416 0.0492938L3.882 0L3.87699 0Z" fill="#61D1EC"/>
<path d="M7.93447 8.08911L16.3699 12.0425C16.6855 12.5256 16.1795 13.748 16.0794 14.3494C15.9341 15.2564 15.874 16.2177 15.9491 17.1345C16.0192 17.9577 16.7305 20.0478 16.5502 20.5851C16.2998 21.3343 15.2579 21.1076 14.9373 20.309C14.3512 18.8647 14.1759 16.7303 14.271 15.1825C14.2961 14.7733 14.6618 13.1121 14.5566 12.9544L7.46862 9.58271C6.82745 9.05034 7.14302 8.2222 7.92946 8.08911H7.93447Z" fill="#61D1EC"/>
<path d="M50.2317 2.8196C50.7377 2.9379 51.3438 2.98227 51.7195 3.37662C51.7846 3.50971 51.489 4.36249 51.3839 4.46601C51.0933 4.7667 50.6024 4.33292 50.2468 4.27377C49.7509 4.18997 49.0396 4.12095 48.729 4.57939C48.0628 5.56526 49.9713 5.97933 50.5824 6.33917C52.7313 7.60109 52.3306 10.1397 50.0113 10.7953L49.9462 12.0918C48.729 12.4615 48.4184 12.0918 48.5437 10.8988L46.8005 10.332C47.061 8.1729 47.4817 9.27708 48.749 9.44468C49.5004 9.54327 50.5022 9.30666 50.3069 8.35529C50.1115 7.40392 47.4266 7.33491 46.9708 5.64413C46.6352 4.38221 47.4116 3.03649 48.7691 2.9379V1.745L50.1065 1.79429L50.2217 2.82453L50.2317 2.8196Z" fill="#61D1EC"/>
<path d="M17.4519 22.8822C17.7825 22.7836 18.1682 22.8576 18.4287 23.0744C18.5389 23.1681 19.696 24.4152 19.7461 24.499C19.8563 24.6913 19.9515 24.923 19.8763 25.1448L13.5097 34.1261C12.7834 34.8359 11.5762 34.131 12.1222 33.1945L17.8827 25.1448C17.7775 24.6075 16.9961 24.3019 16.941 23.7744C16.9059 23.4639 17.1514 22.9759 17.4619 22.8822H17.4519Z" fill="#61D1EC"/>
<path d="M36.8724 9.28207C37.6738 8.49337 38.4352 9.65178 38.6757 10.3468L44.6065 8.1286C45.1124 8.08917 45.5682 8.32578 45.5883 8.87787C45.6133 9.48418 45.2978 9.55812 44.8469 9.78487C42.9134 10.7461 40.4539 11.3278 38.4452 12.2003C37.7189 12.5305 36.7121 10.4701 36.6369 10.0412C36.6019 9.83417 36.7271 9.42503 36.8724 9.28207Z" fill="#61D1EC"/>
<path d="M26.5285 3.40623C27.2799 3.38158 28.1364 3.38651 27.9861 4.40196C27.8409 5.35826 26.6086 5.03292 25.9474 5.11672C25.4966 5.17587 24.9857 5.2646 24.5399 5.36319C23.7634 5.54065 22.1906 6.35399 21.5694 6.15189C21.1286 6.00894 21.0184 5.37798 21.1937 5.00334C21.5794 4.16535 25.6018 3.4358 26.5335 3.4013L26.5285 3.40623Z" fill="#61D1EC"/>
<path d="M38.9111 21.5216C38.3901 22.0441 37.4083 21.6202 37.4534 20.8857C37.4835 20.3386 38.0896 19.1259 38.2298 18.4013C38.3851 17.6028 38.33 16.4591 38.5504 15.7789C38.7508 15.1726 39.8177 15.1775 40.0782 15.8134C40.3637 16.5134 39.9029 18.7119 39.6875 19.5104C39.5823 19.89 39.1365 21.3047 38.9161 21.5265L38.9111 21.5216Z" fill="#61D1EC"/>
<path d="M31.6077 4.37724C32.329 4.16528 34.9889 5.81169 35.5149 6.36378C36.2161 7.09826 35.585 8.09892 34.6182 7.78837C34.3678 7.7095 33.6314 7.02432 33.2858 6.81235C32.85 6.54124 31.2721 5.8462 31.1419 5.55043C30.9615 5.12651 31.1519 4.51033 31.6027 4.37724H31.6077Z" fill="#61D1EC"/>
<path d="M19.0047 6.33921C19.8513 6.12232 20.4474 6.92581 19.9164 7.67507C19.6309 8.07928 18.7743 8.87291 18.2534 8.77432C16.7456 8.48842 18.1682 6.55118 19.0047 6.33921Z" fill="#61D1EC"/>
<path d="M36.0308 23.2075C36.9325 23.0054 37.4785 23.799 36.9475 24.5434C36.6069 25.0215 36.106 25.475 35.4798 25.337C34.3427 25.0807 35.2945 23.3702 36.0308 23.2075Z" fill="#61D1EC"/>
</g>
<defs>
<clipPath id="clip0_72_632">
<rect width="52" height="52" fill="white"/>
</clipPath>
</defs>
</svg>
