<svg width="54" height="54" viewBox="0 0 54 54" fill="none" xmlns="http://www.w3.org/2000/svg">
<g clip-path="url(#clip0_72_620)">
<path d="M26.1187 12.2224L26.1101 8.64697C22.9321 8.01676 21.5254 4.16697 23.6226 1.63331C25.3982 -0.510228 28.6705 -0.480218 30.4032 1.69333C32.436 4.24414 31.0165 8.02105 27.8685 8.64697L27.8599 12.2224C31.2095 12.4153 34.2631 13.7872 36.8278 15.8921L45.8513 6.89784C46.01 6.63633 45.7141 6.47342 45.6283 6.25049C43.96 1.79193 48.7763 -1.81779 52.306 0.990249C56.1487 4.05122 52.8506 10.2803 47.7513 8.36831C47.524 8.28256 47.3653 7.98676 47.1037 8.14538L38.0886 17.1825C40.2288 19.6862 41.5797 22.8158 41.777 26.1297L45.3538 26.1211C45.9843 22.9444 49.8356 21.5382 52.3703 23.6346C54.5147 25.4094 54.4846 28.6805 52.3102 30.4124C49.7584 32.4445 45.98 31.0255 45.3538 27.8788L41.777 27.8702C41.554 31.1284 40.2974 34.3265 38.0886 36.7402L47.1037 45.8545C47.3653 46.0131 47.5283 45.7173 47.7513 45.6316C52.2116 43.9639 55.8227 48.7783 53.0136 52.3065C49.9514 56.1478 43.7198 52.851 45.6326 47.7537C45.7184 47.5265 46.0143 47.3678 45.8556 47.1063L36.8149 38.0949C34.3102 40.2341 31.1794 41.5846 27.8642 41.7818L27.8728 45.3572C31.0508 45.9874 32.4575 49.8372 30.3603 52.3708C28.5847 54.5144 25.3124 54.4844 23.5797 52.3108C21.5468 49.76 22.9664 45.9831 26.1144 45.3572L26.123 41.7818C22.8635 41.5588 19.6641 40.3027 17.2495 38.0949L8.13154 47.1063C7.97286 47.3678 8.26878 47.5307 8.35456 47.7537C10.0229 52.2122 5.20659 55.8219 1.67693 53.0139C-2.16582 49.9529 1.13225 43.7238 6.23161 45.6359C6.45892 45.7216 6.6176 46.0174 6.87922 45.8588L15.8942 36.7445C13.6855 34.3351 12.4289 31.1327 12.2059 27.8745L8.62904 27.8831C7.90852 31.3728 3.52539 32.5903 1.1151 29.8851C-0.553235 28.0117 -0.278753 25.1436 1.66835 23.5917C4.22017 21.5596 7.99859 22.9787 8.62475 26.1254L12.2016 26.1339C12.4246 22.8758 13.6812 19.6776 15.8899 17.264L6.87493 8.14966C6.61331 7.99104 6.45034 8.28685 6.22732 8.37259C1.12797 10.2803 -2.1701 4.05122 1.67693 0.990249C5.20231 -1.81779 10.0229 1.79193 8.35456 6.25049C8.26878 6.47771 7.97286 6.63633 8.13154 6.89784L17.1551 15.8921C19.7155 13.7915 22.7734 12.4153 26.123 12.2224H26.1187ZM4.03147 1.82623C0.776286 2.25922 1.26521 7.20222 4.54183 7.01359C8.02432 6.81638 7.56971 1.35465 4.03147 1.82623ZM26.6376 1.82623C23.3824 2.25922 23.8714 7.20222 27.148 7.01359C30.6305 6.81638 30.1759 1.35465 26.6376 1.82623ZM49.2438 1.82623C45.9886 2.25922 46.4775 7.20222 49.7541 7.01359C53.2366 6.81638 52.782 1.35465 49.2438 1.82623ZM26.0972 13.9972C15.9843 14.696 10.5032 26.2068 16.3574 34.5323C21.8771 42.3777 33.8213 41.666 38.4189 33.2676C43.3596 24.2391 36.3217 13.2899 26.0972 13.9972ZM4.03147 24.4234C0.776286 24.8564 1.26521 29.7994 4.54183 29.6108C8.02432 29.4136 7.56971 23.9518 4.03147 24.4234ZM49.2438 24.4234C45.9886 24.8564 46.4775 29.7994 49.7541 29.6108C53.2366 29.4136 52.782 23.9518 49.2438 24.4234ZM4.03147 47.0163C0.776286 47.4493 1.26521 52.3923 4.54183 52.2037C8.02432 52.0064 7.56971 46.5447 4.03147 47.0163ZM26.6376 47.0163C23.3824 47.4493 23.8714 52.3923 27.148 52.2037C30.6305 52.0064 30.1759 46.5447 26.6376 47.0163ZM49.2438 47.0163C45.9886 47.4493 46.4775 52.3923 49.7541 52.2037C53.2366 52.0064 52.782 46.5447 49.2438 47.0163Z" fill="#fff"/>
<path d="M26.7448 19.2018C29.5926 19.7848 32.3374 21.0066 35.1422 21.8383C35.5154 21.9755 35.7084 22.3099 35.6912 22.7043C35.4939 25.4738 35.9357 28.5648 35.6912 31.2956C35.644 31.8444 35.5497 31.9601 35.065 32.1916C32.7234 33.2977 29.4939 33.825 27.045 34.8282L18.8406 32.1616C18.4675 32.0244 18.2745 31.69 18.2916 31.2956C18.4889 28.5262 18.0472 25.4352 18.2916 22.7043C18.3388 22.1556 18.4332 22.0398 18.9178 21.8083C21.2209 20.7194 24.3603 20.2435 26.7448 19.2018ZM31.8785 22.5457L26.9378 21.0195C25.4925 21.5811 23.6354 21.9069 22.2502 22.5371C22.1215 22.5971 22.0529 22.4857 22.0958 22.7643L27.0364 24.2905C28.4818 23.7289 30.3388 23.4031 31.7241 22.7729C31.8527 22.7129 31.9214 22.8244 31.8785 22.5457ZM26.1187 32.7575V25.9668L20.0329 23.849V30.6397L26.1187 32.7575ZM27.8599 32.7575L33.9457 30.6397V23.849L27.8599 25.9668V32.7575Z" fill="#fff"/>
</g>
<defs>
<clipPath id="clip0_72_620">
<rect width="54" height="54" fill="white"/>
</clipPath>
</defs>
</svg>
