<svg width="56" height="52" viewBox="0 0 56 52" fill="none" xmlns="http://www.w3.org/2000/svg">
<g clip-path="url(#clip0_72_611)">
<path d="M56 11.7495V12.4016L55.481 12.918L42.9953 18.1124V19.688L53.9695 15.2212L54.1211 15.0478C54.0491 13.8076 55.3181 13.5287 56 14.471V16.1032L55.4204 16.6686L42.9953 21.814V33.179L43.6317 32.4552C43.912 32.0783 44.6356 31.0115 44.7189 30.6007C45.0485 29.0024 44.5901 26.2997 44.7379 24.5318C44.7833 23.9814 44.8818 23.3708 45.5068 23.2238C46.1319 23.0768 46.613 23.4952 46.7001 24.1096C46.8478 25.15 46.8668 29.8392 46.685 30.8155C46.3971 32.3459 44.3439 34.6792 43.0976 35.6178L43.0143 40.9366C44.6659 41.8375 45.4387 43.628 44.2909 45.2866C42.0862 48.468 37.173 44.5704 40.0027 41.6716C40.3474 41.3211 40.9762 41.1929 41.0368 40.7406L41.0141 18.2405L40.7035 18.003L30.3846 14.2524C28.3011 15.7527 23.4713 14.4409 24.3956 11.3461C25.3199 8.2514 32.4302 8.71127 31.7559 12.7182L41.8627 16.4236L52.352 12.198L52.5073 11.9719L28.0776 1.97521L3.54189 11.9681L4.0154 12.3111L27.9867 22.157L37.8056 18.2631C38.8587 18.2631 39.0632 19.4882 38.2223 19.9933L27.9716 24.1511L0.564413 12.918C-0.212155 12.4845 -0.106087 11.4969 0.700786 11.1501C9.84534 7.49373 18.8876 3.52447 28.0701 0L55.4166 11.1841L55.9962 11.7495H56ZM27.3352 11.2331C26.7632 11.3273 25.7896 11.8098 26.3768 12.4619C27.0245 13.1781 29.5323 13.163 29.8315 12.1905C30.1308 11.218 27.9375 11.135 27.3314 11.2368L27.3352 11.2331ZM41.6505 42.7648C40.9459 42.9721 40.9459 44.2499 41.6505 44.4573C43.3097 44.9473 43.3097 42.271 41.6505 42.7648Z" fill="#fff"/>
<path d="M56 14.4673C55.3182 13.5249 54.0491 13.8076 54.1211 15.044L53.9696 15.2174L42.9954 19.6842V18.1086L55.4811 12.9142L56 12.3978V14.4635V14.4673Z" fill="white"/>
<path d="M27.0359 38.9388V30.5102C27.0359 29.466 29.0019 29.466 29.0019 30.5102V38.9388C31.4339 38.8784 33.7826 38.4261 36.082 37.6647C36.8055 37.4234 38.7943 36.2134 39.1428 37.3857C39.4913 38.558 37.9116 39.0066 37.0063 39.3496C28.8921 42.418 16.9822 41.0534 11.3 33.9894C10.7962 33.3675 9.50061 31.528 9.35288 30.8155C9.17483 29.941 9.20135 25.0746 9.33772 24.1058C9.51577 22.8468 11.103 22.8695 11.2848 24.2152C11.5538 26.2017 11.0613 28.6443 11.3454 30.6798C14.4214 36.2775 20.8574 38.7691 27.0321 38.9425L27.0359 38.9388Z" fill="#fff"/>
<path d="M0.299253 14.1807C0.708371 13.7736 1.58343 13.8264 1.81829 14.3881C1.9433 14.6896 1.80314 15.0439 2.0721 15.2211L27.9905 25.8661L38.0442 21.7762C38.8511 21.6066 39.3095 22.2361 39.1617 23.0013C39.086 23.3896 38.5708 23.5743 38.2526 23.7288C35.169 25.2329 31.6347 26.2582 28.5133 27.7396L27.7708 27.8187L0.621244 16.6648C-0.155324 16.4047 -0.136383 14.6142 0.299253 14.1807Z" fill="#fff"/>
<path d="M38.8094 46.4626C39.5784 46.2364 40.1921 46.6662 40.158 47.4691C40.1353 48.0006 39.4155 50.7749 39.192 51.3026C38.6882 52.4862 37.2904 52.0075 37.3207 50.9671C37.3358 50.5035 38.0897 47.65 38.2904 47.1449C38.3851 46.9112 38.5442 46.5455 38.8094 46.4664V46.4626Z" fill="#fff"/>
<path d="M44.4916 46.4626C45.2909 46.2854 45.5485 46.6511 45.7796 47.3107C45.9879 47.9025 46.685 50.4469 46.7001 50.9634C46.7342 52.049 45.2682 52.5616 44.7492 51.0538C44.5181 50.3866 43.8931 48.091 43.8666 47.4653C43.8439 47.0167 44.0105 46.5682 44.4954 46.4588L44.4916 46.4626Z" fill="#fff"/>
<path d="M41.7604 47.3334C42.2756 47.2203 42.6771 47.4427 42.8741 47.9215C43.0711 48.4002 43.0711 50.7109 42.9461 51.2348C42.6885 52.3242 41.177 52.2714 41.0255 50.9559C40.9573 50.3679 40.9497 48.7131 41.052 48.1552C41.1164 47.7933 41.3853 47.4164 41.7604 47.3334Z" fill="#fff"/>
</g>
<defs>
<clipPath id="clip0_72_611">
<rect width="56" height="52" fill="white"/>
</clipPath>
</defs>
</svg>
