<svg width="21" height="16" viewBox="0 0 21 16" fill="none" xmlns="http://www.w3.org/2000/svg">
<path d="M10.49 16C6.36101 16 2.64801 13.115 0.558012 8.282C0.519727 8.19151 0.5 8.09426 0.5 7.996C0.5 7.89775 0.519727 7.80049 0.558012 7.71C2.64501 2.881 6.35801 0 10.49 0H10.5C12.5878 0.0194314 14.6085 0.740406 16.237 2.047C18.0904 3.55201 19.5348 5.49958 20.437 7.71C20.4757 7.80039 20.4956 7.89768 20.4956 7.996C20.4956 8.09432 20.4757 8.19161 20.437 8.282C18.352 13.114 14.635 16 10.5 16H10.49ZM6.60001 8C6.59566 8.77227 6.82068 9.52845 7.24656 10.1727C7.67244 10.8169 8.28 11.3202 8.99224 11.6188C9.70448 11.9173 10.4893 11.9977 11.2473 11.8497C12.0053 11.7017 12.7022 11.332 13.2499 10.7875C13.7975 10.243 14.1711 9.5481 14.3234 8.79098C14.4757 8.03386 14.3997 7.24857 14.1052 6.53466C13.8107 5.82075 13.3108 5.21035 12.669 4.78083C12.0272 4.35131 11.2723 4.12201 10.5 4.122C9.46866 4.11934 8.47847 4.52636 7.74714 5.25357C7.0158 5.98078 6.60319 6.96865 6.60001 8ZM8.06501 8C8.06615 7.84047 8.08256 7.68141 8.11401 7.525H8.16001C8.67687 7.52541 9.17382 7.32572 9.54668 6.96778C9.91953 6.60983 10.1393 6.12144 10.16 5.605C10.2722 5.58421 10.386 5.5735 10.5 5.573C10.9776 5.57636 11.4435 5.72096 11.8391 5.9886C12.2347 6.25623 12.5422 6.63494 12.723 7.07701C12.9037 7.51909 12.9497 8.00477 12.8549 8.47289C12.7602 8.94101 12.5291 9.37063 12.1907 9.70765C11.8523 10.0447 11.4217 10.274 10.9532 10.3668C10.4847 10.4596 9.9992 10.4117 9.55787 10.2291C9.11654 10.0465 8.73911 9.73746 8.4731 9.34079C8.20709 8.94412 8.0644 8.4776 8.06301 8H8.06501Z" fill="#000"/>
</svg>
