<svg width="22" height="22" viewBox="0 0 22 22" fill="none" xmlns="http://www.w3.org/2000/svg">
<path d="M11.1002 11.6996C11.0002 11.6996 10.9002 11.6996 10.9002 11.6996C9.10021 11.5996 7.7002 10.1996 7.7002 8.3996C7.7002 6.5996 9.20018 5.09961 11.0002 5.09961C12.8002 5.09961 14.3002 6.5996 14.3002 8.3996C14.3002 10.1996 12.9002 11.6996 11.1002 11.6996Z" stroke="#fff" stroke-width="1.5" stroke-linecap="round" stroke-linejoin="round"/>
<path d="M17.6998 18.2996C15.8998 19.8996 13.5998 20.8996 10.9998 20.8996C8.39982 20.8996 5.9998 19.8996 4.2998 18.2996C4.3998 17.3996 4.99979 16.3996 6.09979 15.6996C8.79979 13.8996 13.2998 13.8996 15.9998 15.6996C16.9998 16.4996 17.5998 17.3996 17.6998 18.2996Z" stroke="#fff" stroke-width="1.5" stroke-linecap="round" stroke-linejoin="round"/>
<path d="M11 21C16.5 21 21 16.5 21 11C21 5.5 16.5 1 11 1C5.5 1 1 5.5 1 11C1 16.5 5.5 21 11 21Z" stroke="#fff" stroke-width="1.5" stroke-linecap="round" stroke-linejoin="round"/>
</svg>