<?xml version="1.0" standalone="no"?>
<!DOCTYPE svg PUBLIC "-//W3C//DTD SVG 20010904//EN"
 "http://www.w3.org/TR/2001/REC-SVG-20010904/DTD/svg10.dtd">
<svg version="1.0" xmlns="http://www.w3.org/2000/svg"
 width="292.000000pt" height="102.000000pt" viewBox="0 0 292.000000 102.000000"
 preserveAspectRatio="xMidYMid meet">

<g transform="translate(0.000000,102.000000) scale(0.100000,-0.100000)"
fill="#0e70b1" stroke="none">
<path d="M248 765 c46 -26 73 -23 86 10 4 12 -6 15 -62 15 l-67 0 43 -25z"/>
<path d="M808 773 c-9 -10 -29 -45 -46 -79 l-31 -60 50 -3 c49 -2 55 3 43 33
-5 14 -10 13 -36 -5 -16 -12 -31 -19 -34 -16 -3 2 11 14 30 26 31 19 34 26 29
51 -3 16 -2 37 1 46 6 15 10 14 35 -10 31 -30 50 -21 31 14 -13 25 -51 26 -72
3z"/>
<path d="M890 777 c0 -7 4 -17 9 -22 5 -6 11 -21 13 -34 3 -22 5 -21 21 15 10
21 13 33 6 27 -7 -7 -18 -13 -23 -13 -6 1 0 10 13 20 l23 20 -31 0 c-19 0 -31
-5 -31 -13z"/>
<path d="M340 760 c-13 -23 -1 -39 28 -40 15 0 15 2 -2 35 l-14 27 -12 -22z"/>
<path d="M210 765 c0 -3 13 -30 29 -60 16 -30 31 -60 33 -67 4 -10 8 -10 21 1
34 27 14 78 -45 114 -28 18 -38 21 -38 12z"/>
<path d="M820 742 c0 -37 9 -45 32 -28 16 12 16 15 -7 36 l-25 23 0 -31z"/>
<path d="M855 706 c-24 -19 -28 -27 -20 -45 l10 -21 30 24 c27 21 28 25 15 42
-9 11 -10 15 -2 10 6 -4 12 -2 12 3 0 17 -12 13 -45 -13z"/>
<path d="M327 713 c-10 -10 -8 -43 2 -43 5 0 11 7 15 15 3 8 11 15 18 15 6 0
-1 -13 -16 -29 -33 -35 -28 -72 12 -87 21 -8 31 -7 45 6 33 32 13 92 -40 119
-25 13 -28 13 -36 4z"/>
<path d="M866 640 c-14 -17 -26 -39 -26 -48 0 -9 -3 -28 -6 -42 -3 -14 10 6
30 44 19 39 34 71 32 73 -2 2 -15 -10 -30 -27z"/>
<path d="M295 630 c-4 -7 -2 -16 5 -20 8 -5 8 -9 2 -11 -7 -3 -5 -13 4 -29 14
-24 14 -24 11 18 -4 47 -11 60 -22 42z"/>
<path d="M773 583 c20 -20 37 -42 37 -48 -1 -5 -9 1 -20 14 l-20 23 5 -63 c6
-77 -1 -67 -10 14 l-7 59 -21 -20 c-12 -10 -29 -22 -37 -26 -8 -4 0 6 18 22
36 32 38 37 17 46 -10 4 -21 -6 -33 -32 -24 -50 -23 -55 23 -97 40 -37 21 -29
-23 10 l-24 20 7 -30 6 -30 -13 29 -14 29 -11 -26 c-14 -31 -9 -37 36 -37 24
0 31 -3 23 -9 -12 -7 -11 -14 2 -40 20 -38 29 -39 44 -6 16 34 16 35 -10 36
-19 1 -17 3 8 11 42 14 64 62 68 153 1 29 -1 30 -43 33 l-45 3 37 -38z"/>
<path d="M427 586 c-4 -10 -7 -21 -7 -25 0 -7 44 -31 56 -31 6 0 -9 27 -29 54
-13 17 -14 18 -20 2z"/>
<path d="M402 575 c-7 -13 -14 -14 -36 -5 -36 13 -36 14 -36 -15 0 -30 6 -31
34 -8 15 13 14 10 -3 -10 -23 -25 -24 -29 -10 -57 l14 -31 26 71 c26 67 30 87
11 55z"/>
<path d="M1160 335 l0 -235 50 0 50 0 0 235 0 235 -50 0 -50 0 0 -235z"/>
<path d="M396 502 c-19 -58 -15 -95 13 -133 12 -17 24 -39 26 -49 2 -11 8 -28
14 -37 9 -15 10 -14 9 9 -1 15 -5 25 -8 23 -4 -2 -4 10 -2 28 4 26 -1 36 -29
59 -18 15 -28 28 -22 28 6 0 16 -7 23 -15 23 -28 24 -26 56 86 3 10 -8 21 -30
32 l-35 16 -15 -47z"/>
<path d="M473 458 c-6 -24 -10 -44 -8 -46 2 -2 14 4 28 13 22 14 24 19 14 45
-6 17 -14 30 -17 30 -3 0 -11 -19 -17 -42z"/>
<path d="M489 412 c-24 -15 -27 -24 -25 -65 1 -39 8 -53 34 -79 l31 -32 20 45
c11 24 21 37 20 29 0 -8 -6 -26 -14 -40 -21 -36 -19 -40 21 -40 32 0 35 2 28
23 -16 52 -37 78 -82 101 -26 14 -42 25 -37 25 6 0 21 -6 35 -14 43 -25 51
-18 28 25 -24 45 -23 45 -59 22z"/>
<path d="M640 371 c0 -33 5 -63 11 -66 6 -4 8 -13 5 -21 -3 -7 -1 -16 4 -19 6
-4 10 -11 10 -17 0 -10 -31 18 -59 55 -12 15 -12 17 3 11 14 -5 16 2 16 52
l-1 59 -20 -37 c-20 -39 -20 -62 2 -123 10 -26 19 -35 35 -35 28 0 45 16 68
67 16 36 16 43 3 68 l-14 28 -26 -44 c-15 -24 -27 -39 -27 -34 0 6 9 24 20 40
29 43 27 75 -5 75 -24 0 -25 -3 -25 -59z"/>
<path d="M858 418 c-39 -10 -42 -16 -32 -55 5 -19 9 -21 26 -12 34 18 109 15
124 -6 19 -25 9 -35 -34 -35 -53 -1 -118 -33 -136 -69 -23 -44 -20 -77 12
-111 35 -40 86 -49 138 -24 27 13 39 15 42 6 2 -7 23 -12 49 -12 l44 0 -6 118
c-4 64 -11 129 -17 144 -21 55 -118 81 -210 56z m132 -193 c0 -47 -59 -82 -88
-53 -31 31 6 78 60 78 23 0 28 -4 28 -25z"/>
<path d="M1437 416 c-50 -18 -67 -34 -88 -81 -70 -152 82 -296 238 -225 72 32
107 115 84 199 -15 56 -34 78 -86 102 -47 22 -96 23 -148 5z m117 -78 c10 -14
16 -44 16 -76 0 -90 -62 -129 -112 -70 -26 29 -24 108 3 142 26 33 71 35 93 4z"/>
<path d="M1875 418 c-11 -6 -27 -20 -36 -31 -16 -19 -16 -19 -23 7 -6 23 -12
26 -46 26 l-40 0 0 -160 0 -160 50 0 50 0 0 94 c0 79 3 97 21 120 14 17 30 26
50 26 28 0 29 2 29 45 0 48 -13 56 -55 33z"/>
<path d="M2077 416 c-50 -18 -67 -34 -88 -81 -70 -152 82 -296 238 -225 72 32
107 115 84 199 -15 56 -34 78 -86 102 -47 22 -96 23 -148 5z m117 -78 c10 -14
16 -44 16 -76 0 -90 -62 -129 -112 -70 -26 29 -24 108 3 142 26 33 71 35 93 4z"/>
<path d="M465 260 c-5 -9 -4 -11 3 -6 7 4 14 -3 17 -17 4 -12 15 -28 26 -35
28 -18 24 3 -9 39 -22 24 -31 29 -37 19z"/>
<path d="M540 197 c0 -13 11 -33 25 -46 l26 -22 29 21 c27 19 50 49 50 64 0 3
-9 6 -21 6 -16 0 -19 -5 -15 -22 l6 -23 -11 23 c-9 17 -21 22 -51 22 -33 0
-38 -3 -38 -23z"/>
<path d="M495 191 c3 -6 13 -23 21 -39 l14 -27 0 25 c0 15 -9 31 -21 38 -12 8
-18 9 -14 3z"/>
<path d="M540 144 c0 -11 5 -25 12 -32 15 -15 48 -16 48 -2 0 6 7 10 15 10 8
0 15 5 15 10 0 6 -13 4 -30 -5 -30 -16 -54 -21 -32 -7 9 7 8 13 -8 27 -19 18
-20 18 -20 -1z"/>
</g>
</svg>
